<mxfile host="65bd71144e">
    <diagram id="C5RBs43oDa-KdzZeNtuy" name="Page-1">
        <mxGraphModel dx="2661" dy="-387" grid="1" gridSize="10" guides="1" tooltips="1" connect="1" arrows="1" fold="1" page="1" pageScale="1" pageWidth="827" pageHeight="1169" math="0" shadow="0">
            <root>
                <mxCell id="WIyWlLk6GJQsqaUBKTNV-0"/>
                <mxCell id="WIyWlLk6GJQsqaUBKTNV-1" parent="WIyWlLk6GJQsqaUBKTNV-0"/>
                <mxCell id="UCgnrM5r7FbpDmx5c8No-4" value="profile_t" style="swimlane;fontStyle=1;childLayout=stackLayout;horizontal=1;startSize=26;fillColor=none;horizontalStack=0;resizeParent=1;resizeParentMax=0;resizeLast=0;collapsible=1;marginBottom=0;" parent="WIyWlLk6GJQsqaUBKTNV-1" vertex="1">
                    <mxGeometry x="-270" y="1697" width="170" height="52" as="geometry"/>
                </mxCell>
                <mxCell id="UCgnrM5r7FbpDmx5c8No-7" value="std::vector&lt;point_t&gt; points_" style="text;strokeColor=none;fillColor=none;align=left;verticalAlign=top;spacingLeft=4;spacingRight=4;overflow=hidden;rotatable=0;points=[[0,0.5],[1,0.5]];portConstraint=eastwest;" parent="UCgnrM5r7FbpDmx5c8No-4" vertex="1">
                    <mxGeometry y="26" width="170" height="26" as="geometry"/>
                </mxCell>
                <mxCell id="UCgnrM5r7FbpDmx5c8No-8" value="assembly_profiles_t" style="swimlane;fontStyle=1;childLayout=stackLayout;horizontal=1;startSize=26;fillColor=none;horizontalStack=0;resizeParent=1;resizeParentMax=0;resizeLast=0;collapsible=1;marginBottom=0;" parent="WIyWlLk6GJQsqaUBKTNV-1" vertex="1">
                    <mxGeometry x="28" y="1658" width="250" height="130" as="geometry"/>
                </mxCell>
                <mxCell id="UCgnrM5r7FbpDmx5c8No-9" value="profile_t cam_path_&#10;" style="text;strokeColor=none;fillColor=none;align=left;verticalAlign=top;spacingLeft=4;spacingRight=4;overflow=hidden;rotatable=0;points=[[0,0.5],[1,0.5]];portConstraint=eastwest;fontStyle=0" parent="UCgnrM5r7FbpDmx5c8No-8" vertex="1">
                    <mxGeometry y="26" width="250" height="26" as="geometry"/>
                </mxCell>
                <mxCell id="UCgnrM5r7FbpDmx5c8No-10" value="profile_t joystick_path_&#10;" style="text;strokeColor=none;fillColor=none;align=left;verticalAlign=top;spacingLeft=4;spacingRight=4;overflow=hidden;rotatable=0;points=[[0,0.5],[1,0.5]];portConstraint=eastwest;fontStyle=0" parent="UCgnrM5r7FbpDmx5c8No-8" vertex="1">
                    <mxGeometry y="52" width="250" height="26" as="geometry"/>
                </mxCell>
                <mxCell id="UCgnrM5r7FbpDmx5c8No-12" value="point_t cam_pivot_&#10;" style="text;strokeColor=none;fillColor=none;align=left;verticalAlign=top;spacingLeft=4;spacingRight=4;overflow=hidden;rotatable=0;points=[[0,0.5],[1,0.5]];portConstraint=eastwest;fontStyle=0" parent="UCgnrM5r7FbpDmx5c8No-8" vertex="1">
                    <mxGeometry y="78" width="250" height="26" as="geometry"/>
                </mxCell>
                <mxCell id="UCgnrM5r7FbpDmx5c8No-11" value="point_t joystick_pivot_&#10;" style="text;strokeColor=none;fillColor=none;align=left;verticalAlign=top;spacingLeft=4;spacingRight=4;overflow=hidden;rotatable=0;points=[[0,0.5],[1,0.5]];portConstraint=eastwest;" parent="UCgnrM5r7FbpDmx5c8No-8" vertex="1">
                    <mxGeometry y="104" width="250" height="26" as="geometry"/>
                </mxCell>
                <mxCell id="UCgnrM5r7FbpDmx5c8No-14" value="JcpApp" style="swimlane;fontStyle=1;align=center;verticalAlign=top;childLayout=stackLayout;horizontal=1;startSize=26;horizontalStack=0;resizeParent=1;resizeParentMax=0;resizeLast=0;collapsible=1;marginBottom=0;" parent="WIyWlLk6GJQsqaUBKTNV-1" vertex="1">
                    <mxGeometry x="638" y="1680" width="210" height="86" as="geometry"/>
                </mxCell>
                <mxCell id="UCgnrM5r7FbpDmx5c8No-15" value="------------" style="text;strokeColor=none;fillColor=none;align=left;verticalAlign=top;spacingLeft=4;spacingRight=4;overflow=hidden;rotatable=0;points=[[0,0.5],[1,0.5]];portConstraint=eastwest;" parent="UCgnrM5r7FbpDmx5c8No-14" vertex="1">
                    <mxGeometry y="26" width="210" height="26" as="geometry"/>
                </mxCell>
                <mxCell id="UCgnrM5r7FbpDmx5c8No-16" value="" style="line;strokeWidth=1;fillColor=none;align=left;verticalAlign=middle;spacingTop=-1;spacingLeft=3;spacingRight=3;rotatable=0;labelPosition=right;points=[];portConstraint=eastwest;strokeColor=inherit;" parent="UCgnrM5r7FbpDmx5c8No-14" vertex="1">
                    <mxGeometry y="52" width="210" height="8" as="geometry"/>
                </mxCell>
                <mxCell id="UCgnrM5r7FbpDmx5c8No-17" value="assembly_profiles_t profiles_" style="text;strokeColor=none;fillColor=none;align=left;verticalAlign=top;spacingLeft=4;spacingRight=4;overflow=hidden;rotatable=0;points=[[0,0.5],[1,0.5]];portConstraint=eastwest;" parent="UCgnrM5r7FbpDmx5c8No-14" vertex="1">
                    <mxGeometry y="60" width="210" height="26" as="geometry"/>
                </mxCell>
                <mxCell id="UCgnrM5r7FbpDmx5c8No-19" value="cam_generator" style="swimlane;fontStyle=1;align=center;verticalAlign=top;childLayout=stackLayout;horizontal=1;startSize=26;horizontalStack=0;resizeParent=1;resizeParentMax=0;resizeLast=0;collapsible=1;marginBottom=0;" parent="WIyWlLk6GJQsqaUBKTNV-1" vertex="1">
                    <mxGeometry x="563" y="1440" width="360" height="86" as="geometry"/>
                </mxCell>
                <mxCell id="UCgnrM5r7FbpDmx5c8No-20" value="+ assembly_profiles_t: generate(cam_generator_config_t config)" style="text;strokeColor=none;fillColor=none;align=left;verticalAlign=top;spacingLeft=4;spacingRight=4;overflow=hidden;rotatable=0;points=[[0,0.5],[1,0.5]];portConstraint=eastwest;" parent="UCgnrM5r7FbpDmx5c8No-19" vertex="1">
                    <mxGeometry y="26" width="360" height="26" as="geometry"/>
                </mxCell>
                <mxCell id="UCgnrM5r7FbpDmx5c8No-21" value="" style="line;strokeWidth=1;fillColor=none;align=left;verticalAlign=middle;spacingTop=-1;spacingLeft=3;spacingRight=3;rotatable=0;labelPosition=right;points=[];portConstraint=eastwest;strokeColor=inherit;" parent="UCgnrM5r7FbpDmx5c8No-19" vertex="1">
                    <mxGeometry y="52" width="360" height="8" as="geometry"/>
                </mxCell>
                <mxCell id="UCgnrM5r7FbpDmx5c8No-22" value="----" style="text;strokeColor=none;fillColor=none;align=left;verticalAlign=top;spacingLeft=4;spacingRight=4;overflow=hidden;rotatable=0;points=[[0,0.5],[1,0.5]];portConstraint=eastwest;" parent="UCgnrM5r7FbpDmx5c8No-19" vertex="1">
                    <mxGeometry y="60" width="360" height="26" as="geometry"/>
                </mxCell>
                <mxCell id="UCgnrM5r7FbpDmx5c8No-23" value="cam_generator_config_t" style="swimlane;fontStyle=1;childLayout=stackLayout;horizontal=1;startSize=26;fillColor=none;horizontalStack=0;resizeParent=1;resizeParentMax=0;resizeLast=0;collapsible=1;marginBottom=0;" parent="WIyWlLk6GJQsqaUBKTNV-1" vertex="1">
                    <mxGeometry x="948" y="1590" width="170" height="52" as="geometry"/>
                </mxCell>
                <mxCell id="UCgnrM5r7FbpDmx5c8No-24" value="....." style="text;strokeColor=none;fillColor=none;align=left;verticalAlign=top;spacingLeft=4;spacingRight=4;overflow=hidden;rotatable=0;points=[[0,0.5],[1,0.5]];portConstraint=eastwest;" parent="UCgnrM5r7FbpDmx5c8No-23" vertex="1">
                    <mxGeometry y="26" width="170" height="26" as="geometry"/>
                </mxCell>
                <mxCell id="UCgnrM5r7FbpDmx5c8No-25" value="Use" style="endArrow=open;endSize=12;dashed=1;html=1;rounded=0;" parent="WIyWlLk6GJQsqaUBKTNV-1" source="UCgnrM5r7FbpDmx5c8No-19" target="UCgnrM5r7FbpDmx5c8No-23" edge="1">
                    <mxGeometry width="160" relative="1" as="geometry">
                        <mxPoint x="798" y="1660" as="sourcePoint"/>
                        <mxPoint x="958" y="1660" as="targetPoint"/>
                    </mxGeometry>
                </mxCell>
                <mxCell id="UCgnrM5r7FbpDmx5c8No-26" value="1" style="endArrow=open;html=1;endSize=12;startArrow=diamondThin;startSize=14;startFill=1;edgeStyle=orthogonalEdgeStyle;align=left;verticalAlign=bottom;rounded=0;" parent="WIyWlLk6GJQsqaUBKTNV-1" source="UCgnrM5r7FbpDmx5c8No-14" target="UCgnrM5r7FbpDmx5c8No-19" edge="1">
                    <mxGeometry x="-0.7403" y="-5" relative="1" as="geometry">
                        <mxPoint x="608" y="1720" as="sourcePoint"/>
                        <mxPoint x="503" y="1530.0000000000002" as="targetPoint"/>
                        <mxPoint as="offset"/>
                    </mxGeometry>
                </mxCell>
                <mxCell id="UCgnrM5r7FbpDmx5c8No-27" value="profile_frame" style="swimlane;fontStyle=1;align=center;verticalAlign=top;childLayout=stackLayout;horizontal=1;startSize=26;horizontalStack=0;resizeParent=1;resizeParentMax=0;resizeLast=0;collapsible=1;marginBottom=0;" parent="WIyWlLk6GJQsqaUBKTNV-1" vertex="1">
                    <mxGeometry x="-290" y="1940" width="210" height="86" as="geometry"/>
                </mxCell>
                <mxCell id="UCgnrM5r7FbpDmx5c8No-28" value="------------" style="text;strokeColor=none;fillColor=none;align=left;verticalAlign=top;spacingLeft=4;spacingRight=4;overflow=hidden;rotatable=0;points=[[0,0.5],[1,0.5]];portConstraint=eastwest;" parent="UCgnrM5r7FbpDmx5c8No-27" vertex="1">
                    <mxGeometry y="26" width="210" height="26" as="geometry"/>
                </mxCell>
                <mxCell id="UCgnrM5r7FbpDmx5c8No-29" value="" style="line;strokeWidth=1;fillColor=none;align=left;verticalAlign=middle;spacingTop=-1;spacingLeft=3;spacingRight=3;rotatable=0;labelPosition=right;points=[];portConstraint=eastwest;strokeColor=inherit;" parent="UCgnrM5r7FbpDmx5c8No-27" vertex="1">
                    <mxGeometry y="52" width="210" height="8" as="geometry"/>
                </mxCell>
                <mxCell id="UCgnrM5r7FbpDmx5c8No-30" value="profile_t profile_" style="text;strokeColor=none;fillColor=none;align=left;verticalAlign=top;spacingLeft=4;spacingRight=4;overflow=hidden;rotatable=0;points=[[0,0.5],[1,0.5]];portConstraint=eastwest;" parent="UCgnrM5r7FbpDmx5c8No-27" vertex="1">
                    <mxGeometry y="60" width="210" height="26" as="geometry"/>
                </mxCell>
                <mxCell id="UCgnrM5r7FbpDmx5c8No-33" value="" style="endArrow=open;html=1;endSize=12;startArrow=diamondThin;startSize=14;startFill=0;edgeStyle=orthogonalEdgeStyle;rounded=0;" parent="WIyWlLk6GJQsqaUBKTNV-1" source="UCgnrM5r7FbpDmx5c8No-27" target="UCgnrM5r7FbpDmx5c8No-4" edge="1">
                    <mxGeometry relative="1" as="geometry">
                        <mxPoint x="308" y="1710" as="sourcePoint"/>
                        <mxPoint x="468" y="1710" as="targetPoint"/>
                    </mxGeometry>
                </mxCell>
                <mxCell id="UCgnrM5r7FbpDmx5c8No-34" value="1" style="edgeLabel;resizable=0;html=1;align=left;verticalAlign=top;" parent="UCgnrM5r7FbpDmx5c8No-33" connectable="0" vertex="1">
                    <mxGeometry x="-1" relative="1" as="geometry">
                        <mxPoint x="5" y="-30" as="offset"/>
                    </mxGeometry>
                </mxCell>
                <mxCell id="UCgnrM5r7FbpDmx5c8No-36" value="" style="endArrow=open;html=1;endSize=12;startArrow=diamondThin;startSize=14;startFill=1;edgeStyle=orthogonalEdgeStyle;rounded=0;" parent="WIyWlLk6GJQsqaUBKTNV-1" source="UCgnrM5r7FbpDmx5c8No-14" target="UCgnrM5r7FbpDmx5c8No-8" edge="1">
                    <mxGeometry relative="1" as="geometry">
                        <mxPoint x="428" y="1660" as="sourcePoint"/>
                        <mxPoint x="163" y="1561" as="targetPoint"/>
                    </mxGeometry>
                </mxCell>
                <mxCell id="UCgnrM5r7FbpDmx5c8No-37" value="1" style="edgeLabel;resizable=0;html=1;align=left;verticalAlign=top;" parent="UCgnrM5r7FbpDmx5c8No-36" connectable="0" vertex="1">
                    <mxGeometry x="-1" relative="1" as="geometry">
                        <mxPoint x="-30" y="-26" as="offset"/>
                    </mxGeometry>
                </mxCell>
                <mxCell id="UCgnrM5r7FbpDmx5c8No-39" value="" style="endArrow=open;html=1;endSize=12;startArrow=diamondThin;startSize=14;startFill=1;edgeStyle=orthogonalEdgeStyle;rounded=0;" parent="WIyWlLk6GJQsqaUBKTNV-1" source="UCgnrM5r7FbpDmx5c8No-8" target="UCgnrM5r7FbpDmx5c8No-4" edge="1">
                    <mxGeometry relative="1" as="geometry">
                        <mxPoint x="503" y="1690.0000000000002" as="sourcePoint"/>
                        <mxPoint x="308" y="1570" as="targetPoint"/>
                    </mxGeometry>
                </mxCell>
                <mxCell id="UCgnrM5r7FbpDmx5c8No-40" value="1" style="edgeLabel;resizable=0;html=1;align=left;verticalAlign=top;" parent="UCgnrM5r7FbpDmx5c8No-39" connectable="0" vertex="1">
                    <mxGeometry x="-1" relative="1" as="geometry">
                        <mxPoint x="-20" y="-25" as="offset"/>
                    </mxGeometry>
                </mxCell>
                <mxCell id="UCgnrM5r7FbpDmx5c8No-41" value="2" style="edgeLabel;resizable=0;html=1;align=right;verticalAlign=top;" parent="UCgnrM5r7FbpDmx5c8No-39" connectable="0" vertex="1">
                    <mxGeometry x="1" relative="1" as="geometry">
                        <mxPoint x="30" y="-25" as="offset"/>
                    </mxGeometry>
                </mxCell>
                <mxCell id="UCgnrM5r7FbpDmx5c8No-44" value="PlotPanel" style="swimlane;fontStyle=1;align=center;verticalAlign=top;childLayout=stackLayout;horizontal=1;startSize=26;horizontalStack=0;resizeParent=1;resizeParentMax=0;resizeLast=0;collapsible=1;marginBottom=0;" parent="WIyWlLk6GJQsqaUBKTNV-1" vertex="1">
                    <mxGeometry x="48" y="1927" width="210" height="112" as="geometry"/>
                </mxCell>
                <mxCell id="UCgnrM5r7FbpDmx5c8No-45" value="------------" style="text;strokeColor=none;fillColor=none;align=left;verticalAlign=top;spacingLeft=4;spacingRight=4;overflow=hidden;rotatable=0;points=[[0,0.5],[1,0.5]];portConstraint=eastwest;" parent="UCgnrM5r7FbpDmx5c8No-44" vertex="1">
                    <mxGeometry y="26" width="210" height="26" as="geometry"/>
                </mxCell>
                <mxCell id="UCgnrM5r7FbpDmx5c8No-46" value="" style="line;strokeWidth=1;fillColor=none;align=left;verticalAlign=middle;spacingTop=-1;spacingLeft=3;spacingRight=3;rotatable=0;labelPosition=right;points=[];portConstraint=eastwest;strokeColor=inherit;" parent="UCgnrM5r7FbpDmx5c8No-44" vertex="1">
                    <mxGeometry y="52" width="210" height="8" as="geometry"/>
                </mxCell>
                <mxCell id="UCgnrM5r7FbpDmx5c8No-47" value="profile_frame cam_frame_" style="text;strokeColor=none;fillColor=none;align=left;verticalAlign=top;spacingLeft=4;spacingRight=4;overflow=hidden;rotatable=0;points=[[0,0.5],[1,0.5]];portConstraint=eastwest;" parent="UCgnrM5r7FbpDmx5c8No-44" vertex="1">
                    <mxGeometry y="60" width="210" height="26" as="geometry"/>
                </mxCell>
                <mxCell id="UCgnrM5r7FbpDmx5c8No-48" value="profile_frame joystick_frame_" style="text;strokeColor=none;fillColor=none;align=left;verticalAlign=top;spacingLeft=4;spacingRight=4;overflow=hidden;rotatable=0;points=[[0,0.5],[1,0.5]];portConstraint=eastwest;" parent="UCgnrM5r7FbpDmx5c8No-44" vertex="1">
                    <mxGeometry y="86" width="210" height="26" as="geometry"/>
                </mxCell>
                <mxCell id="UCgnrM5r7FbpDmx5c8No-50" value="" style="endArrow=open;html=1;endSize=12;startArrow=diamondThin;startSize=14;startFill=1;edgeStyle=orthogonalEdgeStyle;rounded=0;" parent="WIyWlLk6GJQsqaUBKTNV-1" source="UCgnrM5r7FbpDmx5c8No-44" target="UCgnrM5r7FbpDmx5c8No-27" edge="1">
                    <mxGeometry relative="1" as="geometry">
                        <mxPoint x="378.00000000000045" y="1800" as="sourcePoint"/>
                        <mxPoint x="248.00000000000045" y="1800" as="targetPoint"/>
                    </mxGeometry>
                </mxCell>
                <mxCell id="UCgnrM5r7FbpDmx5c8No-51" value="1" style="edgeLabel;resizable=0;html=1;align=left;verticalAlign=top;" parent="UCgnrM5r7FbpDmx5c8No-50" connectable="0" vertex="1">
                    <mxGeometry x="-1" relative="1" as="geometry">
                        <mxPoint x="-30" y="-23" as="offset"/>
                    </mxGeometry>
                </mxCell>
                <mxCell id="UCgnrM5r7FbpDmx5c8No-52" value="2" style="edgeLabel;resizable=0;html=1;align=right;verticalAlign=top;" parent="UCgnrM5r7FbpDmx5c8No-50" connectable="0" vertex="1">
                    <mxGeometry x="1" relative="1" as="geometry">
                        <mxPoint x="28" y="-23" as="offset"/>
                    </mxGeometry>
                </mxCell>
                <mxCell id="UCgnrM5r7FbpDmx5c8No-53" value="MyFrame" style="swimlane;fontStyle=1;align=center;verticalAlign=top;childLayout=stackLayout;horizontal=1;startSize=26;horizontalStack=0;resizeParent=1;resizeParentMax=0;resizeLast=0;collapsible=1;marginBottom=0;" parent="WIyWlLk6GJQsqaUBKTNV-1" vertex="1">
                    <mxGeometry x="638" y="1940" width="210" height="86" as="geometry"/>
                </mxCell>
                <mxCell id="UCgnrM5r7FbpDmx5c8No-54" value="------------" style="text;strokeColor=none;fillColor=none;align=left;verticalAlign=top;spacingLeft=4;spacingRight=4;overflow=hidden;rotatable=0;points=[[0,0.5],[1,0.5]];portConstraint=eastwest;" parent="UCgnrM5r7FbpDmx5c8No-53" vertex="1">
                    <mxGeometry y="26" width="210" height="26" as="geometry"/>
                </mxCell>
                <mxCell id="UCgnrM5r7FbpDmx5c8No-55" value="" style="line;strokeWidth=1;fillColor=none;align=left;verticalAlign=middle;spacingTop=-1;spacingLeft=3;spacingRight=3;rotatable=0;labelPosition=right;points=[];portConstraint=eastwest;strokeColor=inherit;" parent="UCgnrM5r7FbpDmx5c8No-53" vertex="1">
                    <mxGeometry y="52" width="210" height="8" as="geometry"/>
                </mxCell>
                <mxCell id="UCgnrM5r7FbpDmx5c8No-56" value="assembly_profiles_t profiles_" style="text;strokeColor=none;fillColor=none;align=left;verticalAlign=top;spacingLeft=4;spacingRight=4;overflow=hidden;rotatable=0;points=[[0,0.5],[1,0.5]];portConstraint=eastwest;" parent="UCgnrM5r7FbpDmx5c8No-53" vertex="1">
                    <mxGeometry y="60" width="210" height="26" as="geometry"/>
                </mxCell>
                <mxCell id="UCgnrM5r7FbpDmx5c8No-57" value="ControlPlotViewPanel" style="swimlane;fontStyle=1;align=center;verticalAlign=top;childLayout=stackLayout;horizontal=1;startSize=26;horizontalStack=0;resizeParent=1;resizeParentMax=0;resizeLast=0;collapsible=1;marginBottom=0;" parent="WIyWlLk6GJQsqaUBKTNV-1" vertex="1">
                    <mxGeometry x="348" y="1940" width="210" height="86" as="geometry"/>
                </mxCell>
                <mxCell id="UCgnrM5r7FbpDmx5c8No-58" value="------------" style="text;strokeColor=none;fillColor=none;align=left;verticalAlign=top;spacingLeft=4;spacingRight=4;overflow=hidden;rotatable=0;points=[[0,0.5],[1,0.5]];portConstraint=eastwest;" parent="UCgnrM5r7FbpDmx5c8No-57" vertex="1">
                    <mxGeometry y="26" width="210" height="26" as="geometry"/>
                </mxCell>
                <mxCell id="UCgnrM5r7FbpDmx5c8No-59" value="" style="line;strokeWidth=1;fillColor=none;align=left;verticalAlign=middle;spacingTop=-1;spacingLeft=3;spacingRight=3;rotatable=0;labelPosition=right;points=[];portConstraint=eastwest;strokeColor=inherit;" parent="UCgnrM5r7FbpDmx5c8No-57" vertex="1">
                    <mxGeometry y="52" width="210" height="8" as="geometry"/>
                </mxCell>
                <mxCell id="UCgnrM5r7FbpDmx5c8No-60" value="assembly_profiles_t profiles_" style="text;strokeColor=none;fillColor=none;align=left;verticalAlign=top;spacingLeft=4;spacingRight=4;overflow=hidden;rotatable=0;points=[[0,0.5],[1,0.5]];portConstraint=eastwest;" parent="UCgnrM5r7FbpDmx5c8No-57" vertex="1">
                    <mxGeometry y="60" width="210" height="26" as="geometry"/>
                </mxCell>
                <mxCell id="UCgnrM5r7FbpDmx5c8No-62" value="1" style="endArrow=open;html=1;endSize=12;startArrow=diamondThin;startSize=14;startFill=1;edgeStyle=orthogonalEdgeStyle;align=left;verticalAlign=bottom;rounded=0;" parent="WIyWlLk6GJQsqaUBKTNV-1" source="UCgnrM5r7FbpDmx5c8No-53" target="UCgnrM5r7FbpDmx5c8No-57" edge="1">
                    <mxGeometry x="-0.4286" y="-3" relative="1" as="geometry">
                        <mxPoint x="608.0000000000005" y="1733" as="sourcePoint"/>
                        <mxPoint x="763.0000000000005" y="1733" as="targetPoint"/>
                        <mxPoint as="offset"/>
                    </mxGeometry>
                </mxCell>
                <mxCell id="UCgnrM5r7FbpDmx5c8No-63" value="1" style="endArrow=open;html=1;endSize=12;startArrow=diamondThin;startSize=14;startFill=1;edgeStyle=orthogonalEdgeStyle;align=left;verticalAlign=bottom;rounded=0;" parent="WIyWlLk6GJQsqaUBKTNV-1" source="UCgnrM5r7FbpDmx5c8No-14" target="UCgnrM5r7FbpDmx5c8No-53" edge="1">
                    <mxGeometry x="-0.7419" y="3" relative="1" as="geometry">
                        <mxPoint x="638.0000000000005" y="1893" as="sourcePoint"/>
                        <mxPoint x="718.0000000000005" y="1893" as="targetPoint"/>
                        <mxPoint as="offset"/>
                    </mxGeometry>
                </mxCell>
                <mxCell id="UCgnrM5r7FbpDmx5c8No-64" value="1" style="endArrow=open;html=1;endSize=12;startArrow=diamondThin;startSize=14;startFill=1;edgeStyle=orthogonalEdgeStyle;align=left;verticalAlign=bottom;rounded=0;" parent="WIyWlLk6GJQsqaUBKTNV-1" source="UCgnrM5r7FbpDmx5c8No-57" target="UCgnrM5r7FbpDmx5c8No-44" edge="1">
                    <mxGeometry x="-0.6" y="-3" relative="1" as="geometry">
                        <mxPoint x="648.0000000000005" y="1993" as="sourcePoint"/>
                        <mxPoint x="578.0000000000005" y="1993" as="targetPoint"/>
                        <mxPoint as="offset"/>
                    </mxGeometry>
                </mxCell>
                <mxCell id="UCgnrM5r7FbpDmx5c8No-65" value="Use" style="endArrow=open;endSize=12;dashed=1;html=1;rounded=0;" parent="WIyWlLk6GJQsqaUBKTNV-1" source="UCgnrM5r7FbpDmx5c8No-44" target="UCgnrM5r7FbpDmx5c8No-8" edge="1">
                    <mxGeometry width="160" relative="1" as="geometry">
                        <mxPoint x="-32" y="1780" as="sourcePoint"/>
                        <mxPoint x="-32" y="1971" as="targetPoint"/>
                    </mxGeometry>
                </mxCell>
                <mxCell id="UCgnrM5r7FbpDmx5c8No-66" value="Use" style="endArrow=open;endSize=12;dashed=1;html=1;rounded=0;" parent="WIyWlLk6GJQsqaUBKTNV-1" source="UCgnrM5r7FbpDmx5c8No-14" target="UCgnrM5r7FbpDmx5c8No-23" edge="1">
                    <mxGeometry width="160" relative="1" as="geometry">
                        <mxPoint x="829.9473684210525" y="1536" as="sourcePoint"/>
                        <mxPoint x="944.4736842105258" y="1600" as="targetPoint"/>
                    </mxGeometry>
                </mxCell>
                <mxCell id="UCgnrM5r7FbpDmx5c8No-67" value="Use" style="endArrow=open;endSize=12;dashed=1;html=1;rounded=0;" parent="WIyWlLk6GJQsqaUBKTNV-1" source="UCgnrM5r7FbpDmx5c8No-19" target="UCgnrM5r7FbpDmx5c8No-8" edge="1">
                    <mxGeometry width="160" relative="1" as="geometry">
                        <mxPoint x="846.7593984962405" y="1536" as="sourcePoint"/>
                        <mxPoint x="986.3082706766918" y="1600" as="targetPoint"/>
                    </mxGeometry>
                </mxCell>
                <mxCell id="0" value="resolution_t" style="swimlane;fontStyle=1;align=center;verticalAlign=top;childLayout=stackLayout;horizontal=1;startSize=26;horizontalStack=0;resizeParent=1;resizeParentMax=0;resizeLast=0;collapsible=1;marginBottom=0;" vertex="1" parent="WIyWlLk6GJQsqaUBKTNV-1">
                    <mxGeometry x="-265" y="1440" width="160" height="86" as="geometry"/>
                </mxCell>
                <mxCell id="1" value="size_t: resolution" style="text;strokeColor=none;fillColor=none;align=left;verticalAlign=top;spacingLeft=4;spacingRight=4;overflow=hidden;rotatable=0;points=[[0,0.5],[1,0.5]];portConstraint=eastwest;" vertex="1" parent="0">
                    <mxGeometry y="26" width="160" height="26" as="geometry"/>
                </mxCell>
                <mxCell id="2" value="" style="line;strokeWidth=1;fillColor=none;align=left;verticalAlign=middle;spacingTop=-1;spacingLeft=3;spacingRight=3;rotatable=0;labelPosition=right;points=[];portConstraint=eastwest;" vertex="1" parent="0">
                    <mxGeometry y="52" width="160" height="8" as="geometry"/>
                </mxCell>
                <mxCell id="3" value="+ size_t: get_size()" style="text;strokeColor=none;fillColor=none;align=left;verticalAlign=top;spacingLeft=4;spacingRight=4;overflow=hidden;rotatable=0;points=[[0,0.5],[1,0.5]];portConstraint=eastwest;" vertex="1" parent="0">
                    <mxGeometry y="60" width="160" height="26" as="geometry"/>
                </mxCell>
                <mxCell id="4" value="Use" style="endArrow=open;endSize=12;dashed=1;html=1;rounded=0;" edge="1" parent="WIyWlLk6GJQsqaUBKTNV-1" source="UCgnrM5r7FbpDmx5c8No-4" target="0">
                    <mxGeometry width="160" relative="1" as="geometry">
                        <mxPoint x="647.2916666666665" y="1536" as="sourcePoint"/>
                        <mxPoint x="288.00000000000045" y="1682.1525423728813" as="targetPoint"/>
                    </mxGeometry>
                </mxCell>
                <mxCell id="5" value="Use" style="endArrow=open;endSize=12;dashed=1;html=1;rounded=0;" edge="1" parent="WIyWlLk6GJQsqaUBKTNV-1" source="UCgnrM5r7FbpDmx5c8No-19" target="0">
                    <mxGeometry width="160" relative="1" as="geometry">
                        <mxPoint x="647.2916666666665" y="1536" as="sourcePoint"/>
                        <mxPoint x="288.00000000000045" y="1682.1525423728813" as="targetPoint"/>
                    </mxGeometry>
                </mxCell>
            </root>
        </mxGraphModel>
    </diagram>
</mxfile>
